<svg id="icon-settings" viewBox="0 0 48 48" xmlns="http://www.w3.org/2000/svg">
    <path d="M21.2679 11.25V14.8929L19.4464 15.8036L16.7143 13.0714L13.0714 16.7143L15.8036 19.4464L14.8929 21.2679H11.25V26.7321H14.8929L15.8036 28.5536L13.0714 31.2857L16.7143 34.9286L19.4464 32.1964L21.2679 33.1071V36.75H26.7321V33.1071L28.5536 32.1964L31.2857 34.9286L34.9286 31.2857L32.1964 28.5536L33.1071 26.7321H36.75V21.2679H33.1071L32.1964 19.4464L34.9286 16.7143L31.2857 13.0714L28.5536 15.8036L26.7321 14.8929V11.25H21.2679Z"
          stroke="#00CE85" stroke-width="2" stroke-linecap="round" stroke-linejoin="round" fill="transparent"/>
    <path d="M24.0022 27.6431C26.0141 27.6431 27.6451 26.0122 27.6451 24.0003C27.6451 21.9884 26.0141 20.3574 24.0022 20.3574C21.9903 20.3574 20.3594 21.9884 20.3594 24.0003C20.3594 26.0122 21.9903 27.6431 24.0022 27.6431Z"
          stroke="#00CE85" stroke-width="2" stroke-linecap="round" stroke-linejoin="round" fill="transparent"/>
</svg>