<svg style="display:none" xmlns="http://www.w3.org/2000/svg">
    <!-- mode light-->
    <symbol id="icon-mode" viewBox="0 0 48 48">
        <path d="M37.551 27.2666C37.3695 27.1442 37.1529 27.0848 36.9344 27.0974C36.7159 27.11 36.5076 27.1941 36.3414 27.3365C34.4437 28.9847 32.0171 29.8964 29.5036 29.9057C26.8123 29.9431 24.216 28.9118 22.2839 27.0378C20.3518 25.1638 19.2417 22.6002 19.197 19.909C19.2084 18.315 19.6031 16.7473 20.3478 15.338C21.0925 13.9287 22.1653 12.7192 23.4756 11.8116C23.6567 11.6841 23.7903 11.5 23.8554 11.2883C23.9206 11.0766 23.9135 10.8493 23.8355 10.642C23.7591 10.4425 23.6208 10.2728 23.4409 10.1577C23.261 10.0425 23.0489 9.98805 22.8358 10.0022C19.3524 10.3146 16.1096 11.9108 13.7374 14.4806C11.3652 17.0505 10.0331 20.4105 10 23.9077C10.0553 27.6665 11.5983 31.2502 14.291 33.8735C16.9836 36.4968 20.6063 37.9458 24.3653 37.9031C27.3239 37.9223 30.2159 37.0256 32.6447 35.336C35.0735 33.6464 36.92 31.2467 37.9309 28.4662C38.0146 28.2529 38.0225 28.0175 37.9534 27.7991C37.8842 27.5807 37.7422 27.3927 37.551 27.2666ZM24.3653 35.9037C21.1357 35.9492 18.02 34.7117 15.7018 32.4627C13.3835 30.2138 12.052 27.1371 11.9993 23.9077C12.0078 21.5125 12.7331 19.1746 14.0818 17.1952C15.4305 15.2158 17.3409 13.6855 19.5669 12.8013C18.027 14.8508 17.1955 17.3455 17.1976 19.909C17.2424 23.1304 18.5632 26.2026 20.8702 28.4515C23.1772 30.7004 26.2821 31.9424 29.5036 31.905C31.1838 31.9041 32.8464 31.5641 34.392 30.9054C33.225 32.4614 31.7109 33.7235 29.9702 34.5912C28.2295 35.459 26.3103 35.9084 24.3653 35.9037Z" fill="#00CE85"/>
    </symbol>

    <!-- mode dark -->
    <symbol id="icon-mode-dark" viewBox="0 0 48 48">
        <path d="M37.551 27.2666C37.3695 27.1443 37.1529 27.0848 36.9344 27.0975C36.7159 27.1101 36.5076 27.1941 36.3414 27.3366C34.4437 28.9848 32.0171 29.8965 29.5036 29.9058C26.8123 29.9432 24.216 28.9118 22.2839 27.0379C20.3518 25.1639 19.2417 22.6002 19.197 19.909C19.2084 18.3151 19.6031 16.7473 20.3478 15.338C21.0925 13.9287 22.1653 12.7192 23.4756 11.8117C23.6567 11.6841 23.7903 11.5001 23.8554 11.2884C23.9206 11.0767 23.9135 10.8493 23.8355 10.642C23.7591 10.4426 23.6208 10.2729 23.4409 10.1577C23.261 10.0426 23.0489 9.98811 22.8358 10.0023C19.3524 10.3146 16.1096 11.9108 13.7374 14.4807C11.3652 17.0505 10.0331 20.4105 10 23.9077C10.0553 27.6666 11.5983 31.2502 14.291 33.8735C16.9836 36.4969 20.6063 37.9459 24.3653 37.9031C27.3239 37.9223 30.2159 37.0256 32.6447 35.3361C35.0735 33.6465 36.92 31.2468 37.9309 28.4662C38.0146 28.253 38.0225 28.0175 37.9534 27.7992C37.8842 27.5808 37.7422 27.3928 37.551 27.2666Z" fill="#00CE85"/>
    </symbol>

    <!-- Settings -->
    <symbol id="icon-settings" viewBox="0 0 48 48">
        <path d="M21.2679 11.25V14.8929L19.4464 15.8036L16.7143 13.0714L13.0714 16.7143L15.8036 19.4464L14.8929 21.2679H11.25V26.7321H14.8929L15.8036 28.5536L13.0714 31.2857L16.7143 34.9286L19.4464 32.1964L21.2679 33.1071V36.75H26.7321V33.1071L28.5536 32.1964L31.2857 34.9286L34.9286 31.2857L32.1964 28.5536L33.1071 26.7321H36.75V21.2679H33.1071L32.1964 19.4464L34.9286 16.7143L31.2857 13.0714L28.5536 15.8036L26.7321 14.8929V11.25H21.2679Z" stroke="#00CE85" stroke-width="2" stroke-linecap="round" stroke-linejoin="round" fill="transparent"/>
        <path d="M24.0022 27.6431C26.0141 27.6431 27.6451 26.0122 27.6451 24.0003C27.6451 21.9884 26.0141 20.3574 24.0022 20.3574C21.9903 20.3574 20.3594 21.9884 20.3594 24.0003C20.3594 26.0122 21.9903 27.6431 24.0022 27.6431Z" stroke="#00CE85" stroke-width="2" stroke-linecap="round" stroke-linejoin="round" fill="transparent"/>
    </symbol>

    <!-- Settings second -->
    <symbol id="icon-settings-second" viewBox="0 0 24 24">
        <path d="M3 5H7M21 5H11M3 12H15M21 12H19M3 19H5M21 19H9" stroke="#00CE85" stroke-width="2" stroke-linecap="round"/>
        <path d="M9 7C10.1046 7 11 6.10457 11 5C11 3.89543 10.1046 3 9 3C7.89543 3 7 3.89543 7 5C7 6.10457 7.89543 7 9 7Z" stroke="#00CE85" stroke-width="2" stroke-linecap="round"/>
        <path d="M17 14C18.1046 14 19 13.1046 19 12C19 10.8954 18.1046 10 17 10C15.8954 10 15 10.8954 15 12C15 13.1046 15.8954 14 17 14Z" stroke="#00CE85" stroke-width="2" stroke-linecap="round"/>
        <path d="M7 21C8.10457 21 9 20.1046 9 19C9 17.8954 8.10457 17 7 17C5.89543 17 5 17.8954 5 19C5 20.1046 5.89543 21 7 21Z" stroke="#00CE85" stroke-width="2" stroke-linecap="round"/>
    </symbol>

    <!-- ARROW -->
    <symbol id="icon-arrow" viewBox="0 0 12 12">
        <path d="M5 2L1 6L5 10" stroke="#838383" stroke-linecap="round" stroke-linejoin="round" fill="transparent"/>
    </symbol>

    <!-- ARROW second-->
    <symbol id="icon-arrow-second" viewBox="0 0 24 24">
        <path fill-rule="evenodd" clip-rule="evenodd" d="M1.5 12C1.5 11.8011 1.57902 11.6103 1.71967 11.4696C1.86032 11.329 2.05109 11.25 2.25 11.25H19.9395L15.219 6.53097C15.0782 6.39014 14.9991 6.19913 14.9991 5.99997C14.9991 5.80081 15.0782 5.6098 15.219 5.46897C15.3598 5.32814 15.5508 5.24902 15.75 5.24902C15.9492 5.24902 16.1402 5.32814 16.281 5.46897L22.281 11.469C22.3508 11.5386 22.4063 11.6214 22.4441 11.7125C22.4819 11.8036 22.5013 11.9013 22.5013 12C22.5013 12.0986 22.4819 12.1963 22.4441 12.2874C22.4063 12.3785 22.3508 12.4613 22.281 12.531L16.281 18.531C16.1402 18.6718 15.9492 18.7509 15.75 18.7509C15.5508 18.7509 15.3598 18.6718 15.219 18.531C15.0782 18.3901 14.9991 18.1991 14.9991 18C14.9991 17.8008 15.0782 17.6098 15.219 17.469L19.9395 12.75H2.25C2.05109 12.75 1.86032 12.671 1.71967 12.5303C1.57902 12.3896 1.5 12.1989 1.5 12V12Z" fill="#2D2D2D"/>
    </symbol>

    <!-- INFO -->
    <symbol id="icon-info" viewBox="0 0 12 12">
        <path d="M6 0C2.68661 0 0 2.68661 0 6C0 9.31339 2.68661 12 6 12C9.31339 12 12 9.31339 12 6C12 2.68661 9.31339 0 6 0ZM6 10.9821C3.24911 10.9821 1.01786 8.75089 1.01786 6C1.01786 3.24911 3.24911 1.01786 6 1.01786C8.75089 1.01786 10.9821 3.24911 10.9821 6C10.9821 8.75089 8.75089 10.9821 6 10.9821Z" fill="#838383"/>
        <path d="M5.35791 3.64286C5.35791 3.81335 5.42564 3.97687 5.5462 4.09743C5.66676 4.21799 5.83027 4.28571 6.00077 4.28571C6.17126 4.28571 6.33478 4.21799 6.45534 4.09743C6.57589 3.97687 6.64362 3.81335 6.64362 3.64286C6.64362 3.47236 6.57589 3.30885 6.45534 3.18829C6.33478 3.06773 6.17126 3 6.00077 3C5.83027 3 5.66676 3.06773 5.5462 3.18829C5.42564 3.30885 5.35791 3.47236 5.35791 3.64286ZM6.3222 5.14286H5.67934C5.62041 5.14286 5.5722 5.19107 5.5722 5.25V8.89286C5.5722 8.95179 5.62041 9 5.67934 9H6.3222C6.38112 9 6.42934 8.95179 6.42934 8.89286V5.25C6.42934 5.19107 6.38112 5.14286 6.3222 5.14286Z" fill="#838383"/>
    </symbol>

    <!-- SEARCH -->
    <symbol id="icon-search" viewBox="0 0 24 24">
        <path d="M18.6464 19.3536C18.8417 19.5488 19.1583 19.5488 19.3536 19.3536C19.5488 19.1583 19.5488 18.8417 19.3536 18.6464L18.6464 19.3536ZM15.4647 14.7576C15.2694 14.5623 14.9528 14.5623 14.7576 14.7576C14.5623 14.9528 14.5623 15.2694 14.7576 15.4647L15.4647 14.7576ZM10.8333 17.1667C14.3311 17.1667 17.1667 14.3311 17.1667 10.8333H16.1667C16.1667 13.7788 13.7788 16.1667 10.8333 16.1667V17.1667ZM17.1667 10.8333C17.1667 7.33556 14.3311 4.5 10.8333 4.5V5.5C13.7788 5.5 16.1667 7.88784 16.1667 10.8333H17.1667ZM10.8333 4.5C7.33556 4.5 4.5 7.33556 4.5 10.8333H5.5C5.5 7.88784 7.88784 5.5 10.8333 5.5V4.5ZM4.5 10.8333C4.5 14.3311 7.33556 17.1667 10.8333 17.1667V16.1667C7.88784 16.1667 5.5 13.7788 5.5 10.8333H4.5ZM19.3536 18.6464L15.4647 14.7576L14.7576 15.4647L18.6464 19.3536L19.3536 18.6464Z" fill="#9F9F9F"/>
    </symbol>
</svg>
